<svg version="1.1" xmlns="http://www.w3.org/2000/svg" viewBox="0 0 693.6999816894531 385" width="693.6999816894531" height="385">
  <!-- svg-source:excalidraw -->
  
  <defs>
    <style class="style-fonts">
      @font-face {
        font-family: "Virgil";
        src: url("https://excalidraw.com/Virgil.woff2");
      }
      @font-face {
        font-family: "Cascadia";
        src: url("https://excalidraw.com/Cascadia.woff2");
      }
      @font-face {
        font-family: "Assistant";
        src: url("https://excalidraw.com/Assistant-Regular.woff2");
      }
    </style>
    
  </defs>
  <rect x="0" y="0" width="693.6999816894531" height="385" fill="#ffffff"></rect><g stroke-linecap="round"><g transform="translate(95 152) rotate(0 -14 0)"><path d="M0.49 -0.4 C-4.15 -0.33, -23.03 0.47, -27.73 0.54 M0.08 0.58 C-4.62 0.5, -23.36 -0.15, -28.02 -0.15" stroke="#1971c2" stroke-width="2" fill="none"></path></g></g><mask></mask><g stroke-linecap="round"><g transform="translate(65.76565531045537 221.91205932477146) rotate(0 0.5 -34.5)"><path d="M-0.12 0.26 C-0.1 -11.37, 0.98 -57.03, 1 -68.63 M-1.64 -0.65 C-1.85 -12.14, -0.62 -59.31, 0.05 -70.55" stroke="#1971c2" stroke-width="2" fill="none"></path></g></g><mask></mask><g stroke-linecap="round"><g transform="translate(91.76565531045537 223.91205932477146) rotate(0 -14 0)"><path d="M-0.02 -0.21 C-4.57 -0.19, -22.78 0.13, -27.48 0.12 M-0.7 -0.79 C-5.26 -0.95, -22.98 -0.95, -27.64 -0.78" stroke="#1971c2" stroke-width="2" fill="none"></path></g></g><mask></mask><g stroke-linecap="round"><g transform="translate(423.3919998846918 225.33135508316883) rotate(180.2231372288693 -14 0)"><path d="M-0.55 0.37 C-5.13 0.49, -23.06 0.57, -27.68 0.45 M0.17 0.08 C-4.44 0.09, -23.13 -0.28, -27.94 -0.29" stroke="#1971c2" stroke-width="2" fill="none"></path></g></g><mask></mask><g stroke-linecap="round"><g transform="translate(425.03835140157753 224.52994663159188) rotate(180.2231372288693 0.5 -34.5)"><path d="M0.71 0.97 C0.99 -10.8, 0.59 -58.03, 0.5 -69.81 M-0.38 0.44 C-0.19 -11.27, -1.21 -57.17, -0.71 -68.69" stroke="#1971c2" stroke-width="2" fill="none"></path></g></g><mask></mask><g stroke-linecap="round"><g transform="translate(426.8611763516915 153.44916042389355) rotate(180.2231372288693 -14 0)"><path d="M-0.23 -0.37 C-5.01 -0.49, -23.74 -0.41, -28.38 -0.31 M0.66 0.63 C-3.98 0.53, -22.5 0.46, -27.34 0.24" stroke="#1971c2" stroke-width="2" fill="none"></path></g></g><mask></mask><g stroke-linecap="round"><g transform="translate(117.2700462445963 163.10162984322227) rotate(0 -8.220830349862752 0)"><path d="M0.16 0.54 C-2.56 0.48, -13.56 0.3, -16.31 0.17 M-0.42 0.34 C-3.2 0.35, -13.96 -0.69, -16.67 -0.7" stroke="#e03131" stroke-width="2" fill="none"></path></g></g><mask></mask><g stroke-linecap="round"><g transform="translate(100.10357566729942 212.82272324123676) rotate(0 0.29360108392364737 -24.5362207721966)"><path d="M0.13 0.17 C0.22 -8.13, 0.56 -41.12, 0.67 -49.31 M-0.46 -0.21 C-0.46 -8.21, 0.11 -40.71, 0.28 -48.73" stroke="#e03131" stroke-width="2" fill="none"></path></g></g><mask></mask><g stroke-linecap="round"><g transform="translate(116.37083203133022 214.24511285121918) rotate(0 -8.220830349862752 0)"><path d="M0.08 -0.23 C-2.64 -0.25, -13.48 0, -16.22 0.1 M-0.54 -0.83 C-3.33 -1.03, -13.85 -0.87, -16.54 -0.82" stroke="#e03131" stroke-width="2" fill="none"></path></g></g><mask></mask><g stroke-linecap="round"><g transform="translate(108 343) rotate(0 -16.5 -53.5)"><path d="M1.06 -0.12 C-3.58 -7.27, -21 -26.19, -26.8 -43.94 C-32.6 -61.7, -32.67 -96.2, -33.75 -106.63 M0.16 -1.22 C-4.72 -8.17, -22.4 -24.98, -27.64 -42.9 C-32.87 -60.83, -30.32 -97.79, -31.25 -108.77" stroke="#1e1e1e" stroke-width="2" fill="none"></path></g><g transform="translate(108 343) rotate(0 -16.5 -53.5)"><path d="M-22.4 -85.39 C-25.83 -94.05, -30.65 -104.72, -31.25 -108.77 M-22.4 -85.39 C-25.81 -93.76, -28.26 -100.48, -31.25 -108.77" stroke="#1e1e1e" stroke-width="2" fill="none"></path></g><g transform="translate(108 343) rotate(0 -16.5 -53.5)"><path d="M-39.5 -85.17 C-36.29 -94.07, -34.47 -104.82, -31.25 -108.77 M-39.5 -85.17 C-37.25 -93.68, -34.04 -100.47, -31.25 -108.77" stroke="#1e1e1e" stroke-width="2" fill="none"></path></g></g><mask></mask><g transform="translate(68 348) rotate(0 82.5 12.5)"><text x="0" y="17.52" font-family="Virgil, Segoe UI Emoji" font-size="20px" fill="#1971c2" text-anchor="start" style="white-space: pre;" direction="ltr" dominant-baseline="alphabetic">Robustness list</text></g><g stroke-linecap="round"><g transform="translate(345.4020545519296 213.03194829873956) rotate(179.4671071692202 -8.220830349862752 0)"><path d="M0.42 0.06 C-2.33 -0.07, -14.01 -0.24, -16.76 -0.29 M-0.03 -0.38 C-2.58 -0.21, -12.99 0.16, -15.69 0.26" stroke="#e03131" stroke-width="2" fill="none"></path></g></g><mask></mask><g stroke-linecap="round"><g transform="translate(345.3435427515874 211.6509713312892) rotate(179.4671071692202 0.29360108392364737 -24.53622077219663)"><path d="M-0.32 -0.29 C-0.23 -8.51, 0.81 -41.13, 0.96 -49.29 M0.52 0.75 C0.54 -7.4, 0.77 -40.46, 0.73 -48.71" stroke="#e03131" stroke-width="2" fill="none"></path></g></g><mask></mask><g stroke-linecap="round"><g transform="translate(346.9432567562975 162.14868410325613) rotate(179.4671071692202 -8.220830349862752 0)"><path d="M0.38 -0.22 C-2.31 -0.21, -13.62 -0.2, -16.42 -0.19 M-0.09 -0.81 C-2.82 -0.69, -14.06 0.22, -16.83 0.41" stroke="#e03131" stroke-width="2" fill="none"></path></g></g><mask></mask><g transform="translate(351 189) rotate(0 65.5 17.5)"><text x="0" y="24.528" font-family="Virgil, Segoe UI Emoji" font-size="28px" fill="#e03131" text-anchor="start" style="white-space: pre;" direction="ltr" dominant-baseline="alphabetic">, ...</text></g><g transform="translate(115 172) rotate(0 102.4939956665039 17.5)"><text x="0" y="24.528" font-family="Virgil, Segoe UI Emoji" font-size="28px" fill="#1e1e1e" text-anchor="start" style="white-space: pre;" direction="ltr" dominant-baseline="alphabetic">(u, v), eBC, CC</text></g><g stroke-linecap="round"><g transform="translate(70 43) rotate(0 32.8522423838607 57)"><path d="M-0.31 0.57 C4.07 10.19, 15.54 39.04, 26.58 58 C37.62 76.96, 59.2 104.81, 65.91 114.33 M1.72 -0.18 C5.97 9.54, 15.34 39.68, 25.93 59.01 C36.52 78.35, 58.91 106.79, 65.26 115.83" stroke="#1e1e1e" stroke-width="2" fill="none"></path></g><g transform="translate(70 43) rotate(0 32.8522423838607 57)"><path d="M44.43 101.99 C52.16 107.5, 56.31 111.37, 65.26 115.83 M44.43 101.99 C51.06 106.59, 58.48 110.58, 65.26 115.83" stroke="#1e1e1e" stroke-width="2" fill="none"></path></g><g transform="translate(70 43) rotate(0 32.8522423838607 57)"><path d="M58.2 91.84 C61.48 100.61, 61.16 107.78, 65.26 115.83 M58.2 91.84 C60.41 99.9, 63.31 107.22, 65.26 115.83" stroke="#1e1e1e" stroke-width="2" fill="none"></path></g></g><mask></mask><g transform="translate(10 11) rotate(0 65.94000244140625 12.5)"><text x="0" y="17.52" font-family="Virgil, Segoe UI Emoji" font-size="20px" fill="#1e1e1e" text-anchor="start" style="white-space: pre;" direction="ltr" dominant-baseline="alphabetic">Edge removed</text></g><g transform="translate(162 10) rotate(0 144.22000122070312 12.5)"><text x="0" y="17.52" font-family="Virgil, Segoe UI Emoji" font-size="20px" fill="#1e1e1e" text-anchor="start" style="white-space: pre;" direction="ltr" dominant-baseline="alphabetic">python dict[Edge, eBC value]</text></g><g stroke-linecap="round"><g transform="translate(265.0000000000001 43.00000000000003) rotate(0 -28.167960440954573 59.499999999999986)"><path d="M0.1 0.78 C-0.76 11.01, 3.35 41.57, -5.87 61.17 C-15.09 80.77, -46.83 108.67, -55.23 118.36 M-1.31 0.14 C-1.74 10.09, 5.4 39.8, -3.62 59.67 C-12.63 79.53, -46.69 109.19, -55.41 119.35" stroke="#1e1e1e" stroke-width="2" fill="none"></path></g><g transform="translate(265.0000000000001 43.00000000000003) rotate(0 -28.167960440954573 59.499999999999986)"><path d="M-45.09 96.58 C-46.33 100.63, -48.17 109.43, -55.41 119.35 M-45.09 96.58 C-48.42 101.96, -49.66 108.85, -55.41 119.35" stroke="#1e1e1e" stroke-width="2" fill="none"></path></g><g transform="translate(265.0000000000001 43.00000000000003) rotate(0 -28.167960440954573 59.499999999999986)"><path d="M-32.87 108.54 C-37.04 109.72, -41.83 115.62, -55.41 119.35 M-32.87 108.54 C-39.23 111, -43.48 114.94, -55.41 119.35" stroke="#1e1e1e" stroke-width="2" fill="none"></path></g></g><mask></mask><g stroke-linecap="round"><g transform="translate(369.2740336262482 344) rotate(0 -14.143021146620185 -56.835728950963016)"><path d="M0.66 0.44 C-1.03 -9.56, -5.98 -40.68, -10.65 -59.56 C-15.32 -78.45, -24.39 -103.9, -27.37 -112.87 M-0.45 -0.37 C-2.21 -10.78, -6.73 -42.39, -11.27 -61.46 C-15.8 -80.53, -24.8 -106.34, -27.65 -114.8" stroke="#1e1e1e" stroke-width="2" fill="none"></path></g><g transform="translate(369.2740336262482 344) rotate(0 -14.143021146620185 -56.835728950963016)"><path d="M-12.02 -95.28 C-15.44 -99.25, -19.53 -103.86, -27.65 -114.8 M-12.02 -95.28 C-17.52 -101.55, -24.37 -109.85, -27.65 -114.8" stroke="#1e1e1e" stroke-width="2" fill="none"></path></g><g transform="translate(369.2740336262482 344) rotate(0 -14.143021146620185 -56.835728950963016)"><path d="M-28.22 -89.8 C-27.43 -95.29, -27.28 -101.33, -27.65 -114.8 M-28.22 -89.8 C-27.78 -98.12, -28.69 -108.42, -27.65 -114.8" stroke="#1e1e1e" stroke-width="2" fill="none"></path></g></g><mask></mask><g transform="translate(245 350) rotate(0 161.6800079345703 12.5)"><text x="0" y="17.52" font-family="Virgil, Segoe UI Emoji" font-size="20px" fill="#e03131" text-anchor="start" style="white-space: pre;" direction="ltr" dominant-baseline="alphabetic">Attack step, single edge removal</text></g><g transform="translate(349 73) rotate(0 167.34999084472656 12.5)"><text x="0" y="17.52" font-family="Virgil, Segoe UI Emoji" font-size="20px" fill="#1e1e1e" text-anchor="start" style="white-space: pre;" direction="ltr" dominant-baseline="alphabetic">Largest connected component size</text></g><g stroke-linecap="round"><g transform="translate(370 107) rotate(0 -32 29)"><path d="M-0.46 -0.34 C-7.77 2.92, -32.48 9.19, -43.13 18.9 C-53.79 28.62, -61.08 51.62, -64.4 57.94 M1.5 -1.57 C-6.05 1.96, -33.01 10.26, -44.15 20.39 C-55.3 30.52, -62.35 53.07, -65.37 59.23" stroke="#1e1e1e" stroke-width="2" fill="none"></path></g><g transform="translate(370 107) rotate(0 -32 29)"><path d="M-64.4 37.1 C-65.45 44.88, -65.39 52.46, -65.37 59.23 M-64.4 37.1 C-65.1 43.66, -64.19 49.85, -65.37 59.23" stroke="#1e1e1e" stroke-width="2" fill="none"></path></g><g transform="translate(370 107) rotate(0 -32 29)"><path d="M-50.4 42.91 C-56.49 48.53, -61.5 54, -65.37 59.23 M-50.4 42.91 C-55.29 47.62, -58.51 52.09, -65.37 59.23" stroke="#1e1e1e" stroke-width="2" fill="none"></path></g></g><mask></mask></svg>